<svg aria-roledescription="er" role="graphics-document document" viewBox="-29.642925262451172 0 963.5352172851562 1184" style="max-width: 963.535px; background-color: white;" xmlns:xlink="http://www.w3.org/1999/xlink" xmlns="http://www.w3.org/2000/svg" width="100%" id="my-svg"><style>#my-svg{font-family:"trebuchet ms",verdana,arial,sans-serif;font-size:16px;fill:#ccc;}#my-svg .error-icon{fill:#a44141;}#my-svg .error-text{fill:#ddd;stroke:#ddd;}#my-svg .edge-thickness-normal{stroke-width:2px;}#my-svg .edge-thickness-thick{stroke-width:3.5px;}#my-svg .edge-pattern-solid{stroke-dasharray:0;}#my-svg .edge-pattern-dashed{stroke-dasharray:3;}#my-svg .edge-pattern-dotted{stroke-dasharray:2;}#my-svg .marker{fill:lightgrey;stroke:lightgrey;}#my-svg .marker.cross{stroke:lightgrey;}#my-svg svg{font-family:"trebuchet ms",verdana,arial,sans-serif;font-size:16px;}#my-svg .entityBox{fill:#1f2020;stroke:#81B1DB;}#my-svg .attributeBoxOdd{fill:hsl(0, 0%, 32%);stroke:#81B1DB;}#my-svg .attributeBoxEven{fill:hsl(0, 0%, 22%);stroke:#81B1DB;}#my-svg .relationshipLabelBox{fill:hsl(20, 1.5873015873%, 12.3529411765%);opacity:0.7;background-color:hsl(20, 1.5873015873%, 12.3529411765%);}#my-svg .relationshipLabelBox rect{opacity:0.5;}#my-svg .relationshipLine{stroke:lightgrey;}#my-svg .entityTitleText{text-anchor:middle;font-size:18px;fill:#ccc;}#my-svg #MD_PARENT_START{fill:#f5f5f5!important;stroke:lightgrey!important;stroke-width:1;}#my-svg #MD_PARENT_END{fill:#f5f5f5!important;stroke:lightgrey!important;stroke-width:1;}#my-svg :root{--mermaid-font-family:"trebuchet ms",verdana,arial,sans-serif;}</style><g/><defs><marker orient="auto" markerHeight="240" markerWidth="190" refY="7" refX="0" id="MD_PARENT_START"><path d="M 18,7 L9,13 L1,7 L9,1 Z"/></marker></defs><defs><marker orient="auto" markerHeight="28" markerWidth="20" refY="7" refX="19" id="MD_PARENT_END"><path d="M 18,7 L9,13 L1,7 L9,1 Z"/></marker></defs><defs><marker orient="auto" markerHeight="18" markerWidth="18" refY="9" refX="0" id="ONLY_ONE_START"><path d="M9,0 L9,18 M15,0 L15,18" fill="none" stroke="gray"/></marker></defs><defs><marker orient="auto" markerHeight="18" markerWidth="18" refY="9" refX="18" id="ONLY_ONE_END"><path d="M3,0 L3,18 M9,0 L9,18" fill="none" stroke="gray"/></marker></defs><defs><marker orient="auto" markerHeight="18" markerWidth="30" refY="9" refX="0" id="ZERO_OR_ONE_START"><circle r="6" cy="9" cx="21" fill="white" stroke="gray"/><path d="M9,0 L9,18" fill="none" stroke="gray"/></marker></defs><defs><marker orient="auto" markerHeight="18" markerWidth="30" refY="9" refX="30" id="ZERO_OR_ONE_END"><circle r="6" cy="9" cx="9" fill="white" stroke="gray"/><path d="M21,0 L21,18" fill="none" stroke="gray"/></marker></defs><defs><marker orient="auto" markerHeight="36" markerWidth="45" refY="18" refX="18" id="ONE_OR_MORE_START"><path d="M0,18 Q 18,0 36,18 Q 18,36 0,18 M42,9 L42,27" fill="none" stroke="gray"/></marker></defs><defs><marker orient="auto" markerHeight="36" markerWidth="45" refY="18" refX="27" id="ONE_OR_MORE_END"><path d="M3,9 L3,27 M9,18 Q27,0 45,18 Q27,36 9,18" fill="none" stroke="gray"/></marker></defs><defs><marker orient="auto" markerHeight="36" markerWidth="57" refY="18" refX="18" id="ZERO_OR_MORE_START"><circle r="6" cy="18" cx="48" fill="white" stroke="gray"/><path d="M0,18 Q18,0 36,18 Q18,36 0,18" fill="none" stroke="gray"/></marker></defs><defs><marker orient="auto" markerHeight="36" markerWidth="57" refY="18" refX="39" id="ZERO_OR_MORE_END"><circle r="6" cy="18" cx="9" fill="white" stroke="gray"/><path d="M21,18 Q39,0 57,18 Q39,36 21,18" fill="none" stroke="gray"/></marker></defs><path style="stroke: gray; fill: none;" marker-start="url(#ZERO_OR_MORE_START)" marker-end="url(#ZERO_OR_MORE_END)" d="M473.553,97.163L423.885,111.636C374.216,126.109,274.879,155.054,221.508,177.861C168.137,200.667,160.731,217.333,157.028,225.667L153.326,234" class="er relationshipLine"/><path style="stroke: gray; fill: none;" marker-start="url(#ZERO_OR_MORE_START)" marker-end="url(#ZERO_OR_MORE_END)" d="M558.792,134L561.137,142.333C563.482,150.667,568.172,167.333,570.518,193.417C572.863,219.5,572.863,255,572.863,290.5C572.863,326,572.863,361.5,562.73,387.583C552.596,413.667,532.329,430.333,522.196,438.667L512.063,447" class="er relationshipLine"/><path style="stroke: gray; fill: none;" marker-start="url(#ZERO_OR_MORE_START)" marker-end="url(#ZERO_OR_MORE_END)" d="M611.948,99.429L655.433,113.524C698.919,127.619,785.891,155.81,829.377,187.655C872.863,219.5,872.863,255,872.863,290.5C872.863,326,872.863,361.5,872.863,397.083C872.863,432.667,872.863,468.333,872.863,504C872.863,539.667,872.863,575.333,866.653,601.5C860.442,627.667,848.022,644.333,841.812,652.667L835.601,661" class="er relationshipLine"/><path style="stroke: gray; fill: none;" marker-start="url(#ZERO_OR_ONE_START)" marker-end="url(#ONLY_ONE_END)" d="M372.863,775L372.863,783.5C372.863,792,372.863,809,372.863,825.833C372.863,842.667,372.863,859.333,372.863,867.667L372.863,876" class="er relationshipLine"/><path style="stroke: gray; fill: none;" marker-start="url(#ZERO_OR_ONE_START)" marker-end="url(#ONLY_ONE_END)" d="M320.305,662L312.398,653.5C304.491,645,288.677,628,294.001,611.167C299.325,594.333,325.787,577.667,339.018,569.333L352.25,561" class="er relationshipLine"/><path style="stroke: gray; fill: none;" marker-start="url(#ZERO_OR_ONE_START)" marker-end="url(#ONLY_ONE_END)" d="M348.109,541.522L318.901,553.102C289.693,564.681,231.278,587.841,190.98,611.67C150.683,635.5,128.503,660,117.413,672.25L106.323,684.5" class="er relationshipLine"/><path style="stroke: gray; fill: none;" marker-start="url(#ZERO_OR_MORE_START)" marker-end="url(#ZERO_OR_MORE_END)" d="M442.75,561L442.75,569.333C442.75,577.667,442.75,594.333,437.224,611.167C431.698,628,420.646,645,415.12,653.5L409.594,662" class="er relationshipLine"/><path style="stroke: gray; fill: none;" marker-start="url(#ZERO_OR_ONE_START)" marker-end="url(#ZERO_OR_ONE_END)" d="M537.392,534.676L576.637,547.397C615.882,560.118,694.373,585.559,735.159,606.613C775.946,627.667,779.03,644.333,780.571,652.667L782.113,661" class="er relationshipLine"/><path style="stroke: gray; fill: none;" marker-start="url(#ZERO_OR_ONE_START)" marker-end="url(#ONLY_ONE_END)" d="M378.885,447L369.548,438.667C360.211,430.333,341.537,413.667,332.2,387.583C322.863,361.5,322.863,326,322.863,290.5C322.863,255,322.863,219.5,347.978,189.529C373.093,159.557,423.323,135.115,448.438,122.893L473.553,110.672" class="er relationshipLine"/><path style="stroke: gray; fill: none;" marker-start="url(#ZERO_OR_ONE_START)" marker-end="url(#ZERO_OR_ONE_END)" d="M348.109,466.102L319.348,454.585C290.586,443.068,233.064,420.034,200.6,400.184C168.137,380.333,160.731,363.667,157.028,355.333L153.326,347" class="er relationshipLine"/><path style="stroke: gray; fill: none;" marker-start="url(#ZERO_OR_ONE_START)" marker-end="url(#ONLY_ONE_END)" d="M88.302,347L82.414,355.333C76.526,363.667,64.751,380.333,58.863,406.5C52.975,432.667,52.975,468.333,52.975,504C52.975,539.667,52.975,575.333,55.547,605.417C58.118,635.5,63.262,660,65.833,672.25L68.405,684.5" class="er relationshipLine"/><path style="stroke: gray; fill: none;" marker-start="url(#ZERO_OR_MORE_START)" marker-end="url(#ZERO_OR_MORE_END)" d="M222.863,319.746L264.53,332.622C306.196,345.497,389.53,371.249,428.851,392.458C468.172,413.667,463.482,430.333,461.137,438.667L458.792,447" class="er relationshipLine"/><path style="stroke: gray; fill: none;" marker-start="url(#ZERO_OR_ONE_START)" marker-end="url(#ONLY_ONE_END)" d="M100.274,234L96.152,225.667C92.03,217.333,83.786,200.667,145.999,177.141C208.212,153.616,340.883,123.232,407.218,108.04L473.553,92.848" class="er relationshipLine"/><path style="stroke: gray; fill: none;" marker-start="url(#ZERO_OR_ONE_START)" marker-end="url(#ONLY_ONE_END)" d="M730.332,662.531L720.754,653.942C711.175,645.354,692.019,628.177,682.441,601.755C672.863,575.333,672.863,539.667,672.863,504C672.863,468.333,672.863,432.667,672.863,397.083C672.863,361.5,672.863,326,672.863,290.5C672.863,255,672.863,219.5,662.71,193.401C652.558,167.302,632.253,150.604,622.1,142.254L611.948,133.905" class="er relationshipLine"/><path style="stroke: gray; fill: none;" marker-start="url(#ZERO_OR_MORE_START)" marker-end="url(#ZERO_OR_MORE_END)" d="M730.332,687.984L704.087,675.154C677.842,662.323,625.352,636.661,588.974,615.497C552.596,594.333,532.329,577.667,522.196,569.333L512.063,561" class="er relationshipLine"/><g transform="translate(20,684.5 )" id="entity-TrasactionType-841c4856-9937-573f-be64-0e4a50614861"><rect height="68" width="111.083984375" y="0" x="0" class="er entityBox"/><text style="dominant-baseline: middle; text-anchor: middle; font-size: 12px;" transform="translate(55.5419921875,12)" y="0" x="0" id="text-entity-TrasactionType-841c4856-9937-573f-be64-0e4a50614861" class="er entityLabel">TrasactionType</text><rect height="22" width="55.5419921875" y="24" x="0" class="er attributeBoxOdd"/><text style="dominant-baseline: middle; font-size: 10.2px;" transform="translate(5,35)" y="0" x="0" id="text-entity-TrasactionType-841c4856-9937-573f-be64-0e4a50614861-attr-1-type" class="er entityLabel">EXPENSE</text><rect height="22" width="55.5419921875" y="24" x="55.5419921875" class="er attributeBoxOdd"/><text style="dominant-baseline: middle; font-size: 10.2px;" transform="translate(60.5419921875,35)" y="0" x="0" id="text-entity-TrasactionType-841c4856-9937-573f-be64-0e4a50614861-attr-1-name" class="er entityLabel">EXPENSE</text><rect height="22" width="55.5419921875" y="46" x="0" class="er attributeBoxEven"/><text style="dominant-baseline: middle; font-size: 10.2px;" transform="translate(5,57)" y="0" x="0" id="text-entity-TrasactionType-841c4856-9937-573f-be64-0e4a50614861-attr-2-type" class="er entityLabel">REVENUE</text><rect height="22" width="55.5419921875" y="46" x="55.5419921875" class="er attributeBoxEven"/><text style="dominant-baseline: middle; font-size: 10.2px;" transform="translate(60.5419921875,57)" y="0" x="0" id="text-entity-TrasactionType-841c4856-9937-573f-be64-0e4a50614861-attr-2-name" class="er entityLabel">REVENUE</text></g><g transform="translate(309.94801330566406,876 )" id="entity-Months-305f8688-c58d-5ca4-b165-fb973385af34"><rect height="288" width="125.82974243164062" y="0" x="0" class="er entityBox"/><text style="dominant-baseline: middle; text-anchor: middle; font-size: 12px;" transform="translate(62.91487121582031,12)" y="0" x="0" id="text-entity-Months-305f8688-c58d-5ca4-b165-fb973385af34" class="er entityLabel">Months</text><rect height="22" width="62.91487121582031" y="24" x="0" class="er attributeBoxOdd"/><text style="dominant-baseline: middle; font-size: 10.2px;" transform="translate(5,35)" y="0" x="0" id="text-entity-Months-305f8688-c58d-5ca4-b165-fb973385af34-attr-1-type" class="er entityLabel">JANUARY</text><rect height="22" width="62.91487121582031" y="24" x="62.91487121582031" class="er attributeBoxOdd"/><text style="dominant-baseline: middle; font-size: 10.2px;" transform="translate(67.91487121582031,35)" y="0" x="0" id="text-entity-Months-305f8688-c58d-5ca4-b165-fb973385af34-attr-1-name" class="er entityLabel">JANUARY</text><rect height="22" width="62.91487121582031" y="46" x="0" class="er attributeBoxEven"/><text style="dominant-baseline: middle; font-size: 10.2px;" transform="translate(5,57)" y="0" x="0" id="text-entity-Months-305f8688-c58d-5ca4-b165-fb973385af34-attr-2-type" class="er entityLabel">FEBRUARY</text><rect height="22" width="62.91487121582031" y="46" x="62.91487121582031" class="er attributeBoxEven"/><text style="dominant-baseline: middle; font-size: 10.2px;" transform="translate(67.91487121582031,57)" y="0" x="0" id="text-entity-Months-305f8688-c58d-5ca4-b165-fb973385af34-attr-2-name" class="er entityLabel">FEBRUARY</text><rect height="22" width="62.91487121582031" y="68" x="0" class="er attributeBoxOdd"/><text style="dominant-baseline: middle; font-size: 10.2px;" transform="translate(5,79)" y="0" x="0" id="text-entity-Months-305f8688-c58d-5ca4-b165-fb973385af34-attr-3-type" class="er entityLabel">MARCH</text><rect height="22" width="62.91487121582031" y="68" x="62.91487121582031" class="er attributeBoxOdd"/><text style="dominant-baseline: middle; font-size: 10.2px;" transform="translate(67.91487121582031,79)" y="0" x="0" id="text-entity-Months-305f8688-c58d-5ca4-b165-fb973385af34-attr-3-name" class="er entityLabel">MARCH</text><rect height="22" width="62.91487121582031" y="90" x="0" class="er attributeBoxEven"/><text style="dominant-baseline: middle; font-size: 10.2px;" transform="translate(5,101)" y="0" x="0" id="text-entity-Months-305f8688-c58d-5ca4-b165-fb973385af34-attr-4-type" class="er entityLabel">APRIL</text><rect height="22" width="62.91487121582031" y="90" x="62.91487121582031" class="er attributeBoxEven"/><text style="dominant-baseline: middle; font-size: 10.2px;" transform="translate(67.91487121582031,101)" y="0" x="0" id="text-entity-Months-305f8688-c58d-5ca4-b165-fb973385af34-attr-4-name" class="er entityLabel">APRIL</text><rect height="22" width="62.91487121582031" y="112" x="0" class="er attributeBoxOdd"/><text style="dominant-baseline: middle; font-size: 10.2px;" transform="translate(5,123)" y="0" x="0" id="text-entity-Months-305f8688-c58d-5ca4-b165-fb973385af34-attr-5-type" class="er entityLabel">MAY</text><rect height="22" width="62.91487121582031" y="112" x="62.91487121582031" class="er attributeBoxOdd"/><text style="dominant-baseline: middle; font-size: 10.2px;" transform="translate(67.91487121582031,123)" y="0" x="0" id="text-entity-Months-305f8688-c58d-5ca4-b165-fb973385af34-attr-5-name" class="er entityLabel">MAY</text><rect height="22" width="62.91487121582031" y="134" x="0" class="er attributeBoxEven"/><text style="dominant-baseline: middle; font-size: 10.2px;" transform="translate(5,145)" y="0" x="0" id="text-entity-Months-305f8688-c58d-5ca4-b165-fb973385af34-attr-6-type" class="er entityLabel">JUNE</text><rect height="22" width="62.91487121582031" y="134" x="62.91487121582031" class="er attributeBoxEven"/><text style="dominant-baseline: middle; font-size: 10.2px;" transform="translate(67.91487121582031,145)" y="0" x="0" id="text-entity-Months-305f8688-c58d-5ca4-b165-fb973385af34-attr-6-name" class="er entityLabel">JUNE</text><rect height="22" width="62.91487121582031" y="156" x="0" class="er attributeBoxOdd"/><text style="dominant-baseline: middle; font-size: 10.2px;" transform="translate(5,167)" y="0" x="0" id="text-entity-Months-305f8688-c58d-5ca4-b165-fb973385af34-attr-7-type" class="er entityLabel">JULY</text><rect height="22" width="62.91487121582031" y="156" x="62.91487121582031" class="er attributeBoxOdd"/><text style="dominant-baseline: middle; font-size: 10.2px;" transform="translate(67.91487121582031,167)" y="0" x="0" id="text-entity-Months-305f8688-c58d-5ca4-b165-fb973385af34-attr-7-name" class="er entityLabel">JULY</text><rect height="22" width="62.91487121582031" y="178" x="0" class="er attributeBoxEven"/><text style="dominant-baseline: middle; font-size: 10.2px;" transform="translate(5,189)" y="0" x="0" id="text-entity-Months-305f8688-c58d-5ca4-b165-fb973385af34-attr-8-type" class="er entityLabel">AUGUST</text><rect height="22" width="62.91487121582031" y="178" x="62.91487121582031" class="er attributeBoxEven"/><text style="dominant-baseline: middle; font-size: 10.2px;" transform="translate(67.91487121582031,189)" y="0" x="0" id="text-entity-Months-305f8688-c58d-5ca4-b165-fb973385af34-attr-8-name" class="er entityLabel">AUGUST</text><rect height="22" width="62.91487121582031" y="200" x="0" class="er attributeBoxOdd"/><text style="dominant-baseline: middle; font-size: 10.2px;" transform="translate(5,211)" y="0" x="0" id="text-entity-Months-305f8688-c58d-5ca4-b165-fb973385af34-attr-9-type" class="er entityLabel">SEPTEMBER</text><rect height="22" width="62.91487121582031" y="200" x="62.91487121582031" class="er attributeBoxOdd"/><text style="dominant-baseline: middle; font-size: 10.2px;" transform="translate(67.91487121582031,211)" y="0" x="0" id="text-entity-Months-305f8688-c58d-5ca4-b165-fb973385af34-attr-9-name" class="er entityLabel">SEPTEMBER</text><rect height="22" width="62.91487121582031" y="222" x="0" class="er attributeBoxEven"/><text style="dominant-baseline: middle; font-size: 10.2px;" transform="translate(5,233)" y="0" x="0" id="text-entity-Months-305f8688-c58d-5ca4-b165-fb973385af34-attr-10-type" class="er entityLabel">OCTOBER</text><rect height="22" width="62.91487121582031" y="222" x="62.91487121582031" class="er attributeBoxEven"/><text style="dominant-baseline: middle; font-size: 10.2px;" transform="translate(67.91487121582031,233)" y="0" x="0" id="text-entity-Months-305f8688-c58d-5ca4-b165-fb973385af34-attr-10-name" class="er entityLabel">OCTOBER</text><rect height="22" width="62.91487121582031" y="244" x="0" class="er attributeBoxOdd"/><text style="dominant-baseline: middle; font-size: 10.2px;" transform="translate(5,255)" y="0" x="0" id="text-entity-Months-305f8688-c58d-5ca4-b165-fb973385af34-attr-11-type" class="er entityLabel">NOVEMBER</text><rect height="22" width="62.91487121582031" y="244" x="62.91487121582031" class="er attributeBoxOdd"/><text style="dominant-baseline: middle; font-size: 10.2px;" transform="translate(67.91487121582031,255)" y="0" x="0" id="text-entity-Months-305f8688-c58d-5ca4-b165-fb973385af34-attr-11-name" class="er entityLabel">NOVEMBER</text><rect height="22" width="62.91487121582031" y="266" x="0" class="er attributeBoxEven"/><text style="dominant-baseline: middle; font-size: 10.2px;" transform="translate(5,277)" y="0" x="0" id="text-entity-Months-305f8688-c58d-5ca4-b165-fb973385af34-attr-12-type" class="er entityLabel">DECEMBER</text><rect height="22" width="62.91487121582031" y="266" x="62.91487121582031" class="er attributeBoxEven"/><text style="dominant-baseline: middle; font-size: 10.2px;" transform="translate(67.91487121582031,277)" y="0" x="0" id="text-entity-Months-305f8688-c58d-5ca4-b165-fb973385af34-attr-12-name" class="er entityLabel">DECEMBER</text></g><g transform="translate(473.5533103942871,20 )" id="entity-users-33ae1e26-be31-5c1d-bf65-e859e9d0308e"><rect height="114" width="138.39430236816406" y="0" x="0" class="er entityBox"/><text style="dominant-baseline: middle; text-anchor: middle; font-size: 12px;" transform="translate(69.19715118408203,12)" y="0" x="0" id="text-entity-users-33ae1e26-be31-5c1d-bf65-e859e9d0308e" class="er entityLabel">users</text><rect height="23" width="37.39605712890625" y="24" x="0" class="er attributeBoxOdd"/><text style="dominant-baseline: middle; font-size: 10.2px;" transform="translate(5,35.5)" y="0" x="0" id="text-entity-users-33ae1e26-be31-5c1d-bf65-e859e9d0308e-attr-1-type" class="er entityLabel">String</text><rect height="23" width="78.42012023925781" y="24" x="37.39605712890625" class="er attributeBoxOdd"/><text style="dominant-baseline: middle; font-size: 10.2px;" transform="translate(42.39605712890625,35.5)" y="0" x="0" id="text-entity-users-33ae1e26-be31-5c1d-bf65-e859e9d0308e-attr-1-name" class="er entityLabel">id</text><rect height="23" width="22.578125" y="24" x="115.81617736816406" class="er attributeBoxOdd"/><text style="dominant-baseline: middle; font-size: 10.2px;" transform="translate(120.81617736816406,35.5)" y="0" x="0" id="text-entity-users-33ae1e26-be31-5c1d-bf65-e859e9d0308e-attr-1-comment" class="er entityLabel">🗝️</text><rect height="22" width="37.39605712890625" y="47" x="0" class="er attributeBoxEven"/><text style="dominant-baseline: middle; font-size: 10.2px;" transform="translate(5,58)" y="0" x="0" id="text-entity-users-33ae1e26-be31-5c1d-bf65-e859e9d0308e-attr-2-type" class="er entityLabel">String</text><rect height="22" width="78.42012023925781" y="47" x="37.39605712890625" class="er attributeBoxEven"/><text style="dominant-baseline: middle; font-size: 10.2px;" transform="translate(42.39605712890625,58)" y="0" x="0" id="text-entity-users-33ae1e26-be31-5c1d-bf65-e859e9d0308e-attr-2-name" class="er entityLabel">email</text><rect height="22" width="22.578125" y="47" x="115.81617736816406" class="er attributeBoxEven"/><text style="dominant-baseline: middle; font-size: 10.2px;" transform="translate(120.81617736816406,58)" y="0" x="0" id="text-entity-users-33ae1e26-be31-5c1d-bf65-e859e9d0308e-attr-2-comment" class="er entityLabel"/><rect height="22" width="37.39605712890625" y="69" x="0" class="er attributeBoxOdd"/><text style="dominant-baseline: middle; font-size: 10.2px;" transform="translate(5,80)" y="0" x="0" id="text-entity-users-33ae1e26-be31-5c1d-bf65-e859e9d0308e-attr-3-type" class="er entityLabel">String</text><rect height="22" width="78.42012023925781" y="69" x="37.39605712890625" class="er attributeBoxOdd"/><text style="dominant-baseline: middle; font-size: 10.2px;" transform="translate(42.39605712890625,80)" y="0" x="0" id="text-entity-users-33ae1e26-be31-5c1d-bf65-e859e9d0308e-attr-3-name" class="er entityLabel">password_hash</text><rect height="22" width="22.578125" y="69" x="115.81617736816406" class="er attributeBoxOdd"/><text style="dominant-baseline: middle; font-size: 10.2px;" transform="translate(120.81617736816406,80)" y="0" x="0" id="text-entity-users-33ae1e26-be31-5c1d-bf65-e859e9d0308e-attr-3-comment" class="er entityLabel"/><rect height="23" width="37.39605712890625" y="91" x="0" class="er attributeBoxEven"/><text style="dominant-baseline: middle; font-size: 10.2px;" transform="translate(5,102.5)" y="0" x="0" id="text-entity-users-33ae1e26-be31-5c1d-bf65-e859e9d0308e-attr-4-type" class="er entityLabel">String</text><rect height="23" width="78.42012023925781" y="91" x="37.39605712890625" class="er attributeBoxEven"/><text style="dominant-baseline: middle; font-size: 10.2px;" transform="translate(42.39605712890625,102.5)" y="0" x="0" id="text-entity-users-33ae1e26-be31-5c1d-bf65-e859e9d0308e-attr-4-name" class="er entityLabel">name</text><rect height="23" width="22.578125" y="91" x="115.81617736816406" class="er attributeBoxEven"/><text style="dominant-baseline: middle; font-size: 10.2px;" transform="translate(120.81617736816406,102.5)" y="0" x="0" id="text-entity-users-33ae1e26-be31-5c1d-bf65-e859e9d0308e-attr-4-comment" class="er entityLabel">❓</text></g><g transform="translate(288.62972259521484,662 )" id="entity-invoices-c3d736d7-e93e-55e5-8a5a-a348eeb5b938"><rect height="113" width="168.46632385253906" y="0" x="0" class="er entityBox"/><text style="dominant-baseline: middle; text-anchor: middle; font-size: 12px;" transform="translate(84.23316192626953,12)" y="0" x="0" id="text-entity-invoices-c3d736d7-e93e-55e5-8a5a-a348eeb5b938" class="er entityLabel">invoices</text><rect height="23" width="54.095550537109375" y="24" x="0" class="er attributeBoxOdd"/><text style="dominant-baseline: middle; font-size: 10.2px;" transform="translate(5,35.5)" y="0" x="0" id="text-entity-invoices-c3d736d7-e93e-55e5-8a5a-a348eeb5b938-attr-1-type" class="er entityLabel">String</text><rect height="23" width="91.79264831542969" y="24" x="54.095550537109375" class="er attributeBoxOdd"/><text style="dominant-baseline: middle; font-size: 10.2px;" transform="translate(59.095550537109375,35.5)" y="0" x="0" id="text-entity-invoices-c3d736d7-e93e-55e5-8a5a-a348eeb5b938-attr-1-name" class="er entityLabel">id</text><rect height="23" width="22.578125" y="24" x="145.88819885253906" class="er attributeBoxOdd"/><text style="dominant-baseline: middle; font-size: 10.2px;" transform="translate(150.88819885253906,35.5)" y="0" x="0" id="text-entity-invoices-c3d736d7-e93e-55e5-8a5a-a348eeb5b938-attr-1-comment" class="er entityLabel">🗝️</text><rect height="22" width="54.095550537109375" y="47" x="0" class="er attributeBoxEven"/><text style="dominant-baseline: middle; font-size: 10.2px;" transform="translate(5,58)" y="0" x="0" id="text-entity-invoices-c3d736d7-e93e-55e5-8a5a-a348eeb5b938-attr-2-type" class="er entityLabel">Decimal</text><rect height="22" width="91.79264831542969" y="47" x="54.095550537109375" class="er attributeBoxEven"/><text style="dominant-baseline: middle; font-size: 10.2px;" transform="translate(59.095550537109375,58)" y="0" x="0" id="text-entity-invoices-c3d736d7-e93e-55e5-8a5a-a348eeb5b938-attr-2-name" class="er entityLabel">value</text><rect height="22" width="22.578125" y="47" x="145.88819885253906" class="er attributeBoxEven"/><text style="dominant-baseline: middle; font-size: 10.2px;" transform="translate(150.88819885253906,58)" y="0" x="0" id="text-entity-invoices-c3d736d7-e93e-55e5-8a5a-a348eeb5b938-attr-2-comment" class="er entityLabel"/><rect height="22" width="54.095550537109375" y="69" x="0" class="er attributeBoxOdd"/><text style="dominant-baseline: middle; font-size: 10.2px;" transform="translate(5,80)" y="0" x="0" id="text-entity-invoices-c3d736d7-e93e-55e5-8a5a-a348eeb5b938-attr-3-type" class="er entityLabel">Months</text><rect height="22" width="91.79264831542969" y="69" x="54.095550537109375" class="er attributeBoxOdd"/><text style="dominant-baseline: middle; font-size: 10.2px;" transform="translate(59.095550537109375,80)" y="0" x="0" id="text-entity-invoices-c3d736d7-e93e-55e5-8a5a-a348eeb5b938-attr-3-name" class="er entityLabel">monthTransaction</text><rect height="22" width="22.578125" y="69" x="145.88819885253906" class="er attributeBoxOdd"/><text style="dominant-baseline: middle; font-size: 10.2px;" transform="translate(150.88819885253906,80)" y="0" x="0" id="text-entity-invoices-c3d736d7-e93e-55e5-8a5a-a348eeb5b938-attr-3-comment" class="er entityLabel"/><rect height="22" width="54.095550537109375" y="91" x="0" class="er attributeBoxEven"/><text style="dominant-baseline: middle; font-size: 10.2px;" transform="translate(5,102)" y="0" x="0" id="text-entity-invoices-c3d736d7-e93e-55e5-8a5a-a348eeb5b938-attr-4-type" class="er entityLabel">DateTime</text><rect height="22" width="91.79264831542969" y="91" x="54.095550537109375" class="er attributeBoxEven"/><text style="dominant-baseline: middle; font-size: 10.2px;" transform="translate(59.095550537109375,102)" y="0" x="0" id="text-entity-invoices-c3d736d7-e93e-55e5-8a5a-a348eeb5b938-attr-4-name" class="er entityLabel">created_at</text><rect height="22" width="22.578125" y="91" x="145.88819885253906" class="er attributeBoxEven"/><text style="dominant-baseline: middle; font-size: 10.2px;" transform="translate(150.88819885253906,102)" y="0" x="0" id="text-entity-invoices-c3d736d7-e93e-55e5-8a5a-a348eeb5b938-attr-4-comment" class="er entityLabel"/></g><g transform="translate(348.1086769104004,447 )" id="entity-transactions-a3d7e83a-4348-578f-b8ec-7c8b8dbef31a"><rect height="114" width="189.2835693359375" y="0" x="0" class="er entityBox"/><text style="dominant-baseline: middle; text-anchor: middle; font-size: 12px;" transform="translate(94.64178466796875,12)" y="0" x="0" id="text-entity-transactions-a3d7e83a-4348-578f-b8ec-7c8b8dbef31a" class="er entityLabel">transactions</text><rect height="23" width="79.12129211425781" y="24" x="0" class="er attributeBoxOdd"/><text style="dominant-baseline: middle; font-size: 10.2px;" transform="translate(5,35.5)" y="0" x="0" id="text-entity-transactions-a3d7e83a-4348-578f-b8ec-7c8b8dbef31a-attr-1-type" class="er entityLabel">String</text><rect height="23" width="87.58415222167969" y="24" x="79.12129211425781" class="er attributeBoxOdd"/><text style="dominant-baseline: middle; font-size: 10.2px;" transform="translate(84.12129211425781,35.5)" y="0" x="0" id="text-entity-transactions-a3d7e83a-4348-578f-b8ec-7c8b8dbef31a-attr-1-name" class="er entityLabel">id</text><rect height="23" width="22.578125" y="24" x="166.7054443359375" class="er attributeBoxOdd"/><text style="dominant-baseline: middle; font-size: 10.2px;" transform="translate(171.7054443359375,35.5)" y="0" x="0" id="text-entity-transactions-a3d7e83a-4348-578f-b8ec-7c8b8dbef31a-attr-1-comment" class="er entityLabel">🗝️</text><rect height="22" width="79.12129211425781" y="47" x="0" class="er attributeBoxEven"/><text style="dominant-baseline: middle; font-size: 10.2px;" transform="translate(5,58)" y="0" x="0" id="text-entity-transactions-a3d7e83a-4348-578f-b8ec-7c8b8dbef31a-attr-2-type" class="er entityLabel">TrasactionType</text><rect height="22" width="87.58415222167969" y="47" x="79.12129211425781" class="er attributeBoxEven"/><text style="dominant-baseline: middle; font-size: 10.2px;" transform="translate(84.12129211425781,58)" y="0" x="0" id="text-entity-transactions-a3d7e83a-4348-578f-b8ec-7c8b8dbef31a-attr-2-name" class="er entityLabel">transaction_type</text><rect height="22" width="22.578125" y="47" x="166.7054443359375" class="er attributeBoxEven"/><text style="dominant-baseline: middle; font-size: 10.2px;" transform="translate(171.7054443359375,58)" y="0" x="0" id="text-entity-transactions-a3d7e83a-4348-578f-b8ec-7c8b8dbef31a-attr-2-comment" class="er entityLabel"/><rect height="22" width="79.12129211425781" y="69" x="0" class="er attributeBoxOdd"/><text style="dominant-baseline: middle; font-size: 10.2px;" transform="translate(5,80)" y="0" x="0" id="text-entity-transactions-a3d7e83a-4348-578f-b8ec-7c8b8dbef31a-attr-3-type" class="er entityLabel">DateTime</text><rect height="22" width="87.58415222167969" y="69" x="79.12129211425781" class="er attributeBoxOdd"/><text style="dominant-baseline: middle; font-size: 10.2px;" transform="translate(84.12129211425781,80)" y="0" x="0" id="text-entity-transactions-a3d7e83a-4348-578f-b8ec-7c8b8dbef31a-attr-3-name" class="er entityLabel">created_at</text><rect height="22" width="22.578125" y="69" x="166.7054443359375" class="er attributeBoxOdd"/><text style="dominant-baseline: middle; font-size: 10.2px;" transform="translate(171.7054443359375,80)" y="0" x="0" id="text-entity-transactions-a3d7e83a-4348-578f-b8ec-7c8b8dbef31a-attr-3-comment" class="er entityLabel"/><rect height="23" width="79.12129211425781" y="91" x="0" class="er attributeBoxEven"/><text style="dominant-baseline: middle; font-size: 10.2px;" transform="translate(5,102.5)" y="0" x="0" id="text-entity-transactions-a3d7e83a-4348-578f-b8ec-7c8b8dbef31a-attr-4-type" class="er entityLabel">DateTime</text><rect height="23" width="87.58415222167969" y="91" x="79.12129211425781" class="er attributeBoxEven"/><text style="dominant-baseline: middle; font-size: 10.2px;" transform="translate(84.12129211425781,102.5)" y="0" x="0" id="text-entity-transactions-a3d7e83a-4348-578f-b8ec-7c8b8dbef31a-attr-4-name" class="er entityLabel">transaction_at</text><rect height="23" width="22.578125" y="91" x="166.7054443359375" class="er attributeBoxEven"/><text style="dominant-baseline: middle; font-size: 10.2px;" transform="translate(171.7054443359375,102.5)" y="0" x="0" id="text-entity-transactions-a3d7e83a-4348-578f-b8ec-7c8b8dbef31a-attr-4-comment" class="er entityLabel">❓</text></g><g transform="translate(33.579315185546875,234 )" id="entity-categories-a09d50f2-ac74-5856-9390-f2cc9b07f93b"><rect height="113" width="189.2835693359375" y="0" x="0" class="er entityBox"/><text style="dominant-baseline: middle; text-anchor: middle; font-size: 12px;" transform="translate(94.64178466796875,12)" y="0" x="0" id="text-entity-categories-a09d50f2-ac74-5856-9390-f2cc9b07f93b" class="er entityLabel">categories</text><rect height="23" width="79.12129211425781" y="24" x="0" class="er attributeBoxOdd"/><text style="dominant-baseline: middle; font-size: 10.2px;" transform="translate(5,35.5)" y="0" x="0" id="text-entity-categories-a09d50f2-ac74-5856-9390-f2cc9b07f93b-attr-1-type" class="er entityLabel">String</text><rect height="23" width="87.58415222167969" y="24" x="79.12129211425781" class="er attributeBoxOdd"/><text style="dominant-baseline: middle; font-size: 10.2px;" transform="translate(84.12129211425781,35.5)" y="0" x="0" id="text-entity-categories-a09d50f2-ac74-5856-9390-f2cc9b07f93b-attr-1-name" class="er entityLabel">id</text><rect height="23" width="22.578125" y="24" x="166.7054443359375" class="er attributeBoxOdd"/><text style="dominant-baseline: middle; font-size: 10.2px;" transform="translate(171.7054443359375,35.5)" y="0" x="0" id="text-entity-categories-a09d50f2-ac74-5856-9390-f2cc9b07f93b-attr-1-comment" class="er entityLabel">🗝️</text><rect height="22" width="79.12129211425781" y="47" x="0" class="er attributeBoxEven"/><text style="dominant-baseline: middle; font-size: 10.2px;" transform="translate(5,58)" y="0" x="0" id="text-entity-categories-a09d50f2-ac74-5856-9390-f2cc9b07f93b-attr-2-type" class="er entityLabel">String</text><rect height="22" width="87.58415222167969" y="47" x="79.12129211425781" class="er attributeBoxEven"/><text style="dominant-baseline: middle; font-size: 10.2px;" transform="translate(84.12129211425781,58)" y="0" x="0" id="text-entity-categories-a09d50f2-ac74-5856-9390-f2cc9b07f93b-attr-2-name" class="er entityLabel">name</text><rect height="22" width="22.578125" y="47" x="166.7054443359375" class="er attributeBoxEven"/><text style="dominant-baseline: middle; font-size: 10.2px;" transform="translate(171.7054443359375,58)" y="0" x="0" id="text-entity-categories-a09d50f2-ac74-5856-9390-f2cc9b07f93b-attr-2-comment" class="er entityLabel"/><rect height="22" width="79.12129211425781" y="69" x="0" class="er attributeBoxOdd"/><text style="dominant-baseline: middle; font-size: 10.2px;" transform="translate(5,80)" y="0" x="0" id="text-entity-categories-a09d50f2-ac74-5856-9390-f2cc9b07f93b-attr-3-type" class="er entityLabel">TrasactionType</text><rect height="22" width="87.58415222167969" y="69" x="79.12129211425781" class="er attributeBoxOdd"/><text style="dominant-baseline: middle; font-size: 10.2px;" transform="translate(84.12129211425781,80)" y="0" x="0" id="text-entity-categories-a09d50f2-ac74-5856-9390-f2cc9b07f93b-attr-3-name" class="er entityLabel">transaction_type</text><rect height="22" width="22.578125" y="69" x="166.7054443359375" class="er attributeBoxOdd"/><text style="dominant-baseline: middle; font-size: 10.2px;" transform="translate(171.7054443359375,80)" y="0" x="0" id="text-entity-categories-a09d50f2-ac74-5856-9390-f2cc9b07f93b-attr-3-comment" class="er entityLabel"/><rect height="22" width="79.12129211425781" y="91" x="0" class="er attributeBoxEven"/><text style="dominant-baseline: middle; font-size: 10.2px;" transform="translate(5,102)" y="0" x="0" id="text-entity-categories-a09d50f2-ac74-5856-9390-f2cc9b07f93b-attr-4-type" class="er entityLabel">DateTime</text><rect height="22" width="87.58415222167969" y="91" x="79.12129211425781" class="er attributeBoxEven"/><text style="dominant-baseline: middle; font-size: 10.2px;" transform="translate(84.12129211425781,102)" y="0" x="0" id="text-entity-categories-a09d50f2-ac74-5856-9390-f2cc9b07f93b-attr-4-name" class="er entityLabel">created_at</text><rect height="22" width="22.578125" y="91" x="166.7054443359375" class="er attributeBoxEven"/><text style="dominant-baseline: middle; font-size: 10.2px;" transform="translate(171.7054443359375,102)" y="0" x="0" id="text-entity-categories-a09d50f2-ac74-5856-9390-f2cc9b07f93b-attr-4-comment" class="er entityLabel"/></g><g transform="translate(730.3317222595215,661 )" id="entity-formspayment-eec3d650-bf97-5c15-8fcc-1aa5faecff8c"><rect height="115" width="124.83747863769531" y="0" x="0" class="er entityBox"/><text style="dominant-baseline: middle; text-anchor: middle; font-size: 12px;" transform="translate(62.418739318847656,12)" y="0" x="0" id="text-entity-formspayment-eec3d650-bf97-5c15-8fcc-1aa5faecff8c" class="er entityLabel">forms_payment</text><rect height="23" width="37.39605712890625" y="24" x="0" class="er attributeBoxOdd"/><text style="dominant-baseline: middle; font-size: 10.2px;" transform="translate(5,35.5)" y="0" x="0" id="text-entity-formspayment-eec3d650-bf97-5c15-8fcc-1aa5faecff8c-attr-1-type" class="er entityLabel">String</text><rect height="23" width="64.86329650878906" y="24" x="37.39605712890625" class="er attributeBoxOdd"/><text style="dominant-baseline: middle; font-size: 10.2px;" transform="translate(42.39605712890625,35.5)" y="0" x="0" id="text-entity-formspayment-eec3d650-bf97-5c15-8fcc-1aa5faecff8c-attr-1-name" class="er entityLabel">id</text><rect height="23" width="22.578125" y="24" x="102.25935363769531" class="er attributeBoxOdd"/><text style="dominant-baseline: middle; font-size: 10.2px;" transform="translate(107.25935363769531,35.5)" y="0" x="0" id="text-entity-formspayment-eec3d650-bf97-5c15-8fcc-1aa5faecff8c-attr-1-comment" class="er entityLabel">🗝️</text><rect height="22" width="37.39605712890625" y="47" x="0" class="er attributeBoxEven"/><text style="dominant-baseline: middle; font-size: 10.2px;" transform="translate(5,58)" y="0" x="0" id="text-entity-formspayment-eec3d650-bf97-5c15-8fcc-1aa5faecff8c-attr-2-type" class="er entityLabel">String</text><rect height="22" width="64.86329650878906" y="47" x="37.39605712890625" class="er attributeBoxEven"/><text style="dominant-baseline: middle; font-size: 10.2px;" transform="translate(42.39605712890625,58)" y="0" x="0" id="text-entity-formspayment-eec3d650-bf97-5c15-8fcc-1aa5faecff8c-attr-2-name" class="er entityLabel">name</text><rect height="22" width="22.578125" y="47" x="102.25935363769531" class="er attributeBoxEven"/><text style="dominant-baseline: middle; font-size: 10.2px;" transform="translate(107.25935363769531,58)" y="0" x="0" id="text-entity-formspayment-eec3d650-bf97-5c15-8fcc-1aa5faecff8c-attr-2-comment" class="er entityLabel"/><rect height="23" width="37.39605712890625" y="69" x="0" class="er attributeBoxOdd"/><text style="dominant-baseline: middle; font-size: 10.2px;" transform="translate(5,80.5)" y="0" x="0" id="text-entity-formspayment-eec3d650-bf97-5c15-8fcc-1aa5faecff8c-attr-3-type" class="er entityLabel">Int</text><rect height="23" width="64.86329650878906" y="69" x="37.39605712890625" class="er attributeBoxOdd"/><text style="dominant-baseline: middle; font-size: 10.2px;" transform="translate(42.39605712890625,80.5)" y="0" x="0" id="text-entity-formspayment-eec3d650-bf97-5c15-8fcc-1aa5faecff8c-attr-3-name" class="er entityLabel">invoice_day</text><rect height="23" width="22.578125" y="69" x="102.25935363769531" class="er attributeBoxOdd"/><text style="dominant-baseline: middle; font-size: 10.2px;" transform="translate(107.25935363769531,80.5)" y="0" x="0" id="text-entity-formspayment-eec3d650-bf97-5c15-8fcc-1aa5faecff8c-attr-3-comment" class="er entityLabel">❓</text><rect height="23" width="37.39605712890625" y="92" x="0" class="er attributeBoxEven"/><text style="dominant-baseline: middle; font-size: 10.2px;" transform="translate(5,103.5)" y="0" x="0" id="text-entity-formspayment-eec3d650-bf97-5c15-8fcc-1aa5faecff8c-attr-4-type" class="er entityLabel">Int</text><rect height="23" width="64.86329650878906" y="92" x="37.39605712890625" class="er attributeBoxEven"/><text style="dominant-baseline: middle; font-size: 10.2px;" transform="translate(42.39605712890625,103.5)" y="0" x="0" id="text-entity-formspayment-eec3d650-bf97-5c15-8fcc-1aa5faecff8c-attr-4-name" class="er entityLabel">due_day</text><rect height="23" width="22.578125" y="92" x="102.25935363769531" class="er attributeBoxEven"/><text style="dominant-baseline: middle; font-size: 10.2px;" transform="translate(107.25935363769531,103.5)" y="0" x="0" id="text-entity-formspayment-eec3d650-bf97-5c15-8fcc-1aa5faecff8c-attr-4-comment" class="er entityLabel">❓</text></g><rect height="14" width="55.642578125" y="141.34938049316406" x="275.25909423828125" class="er relationshipLabelBox"/><text style="text-anchor: middle; dominant-baseline: middle; font-size: 12px;" y="148.34938049316406" x="303.08038330078125" id="rel1" class="er relationshipLabel">categories</text><rect height="14" width="65.5625" y="293.2135925292969" x="540.0738525390625" class="er relationshipLabelBox"/><text style="text-anchor: middle; dominant-baseline: middle; font-size: 12px;" y="300.2135925292969" x="572.8551025390625" id="rel2" class="er relationshipLabel">transactions</text><rect height="14" width="81.927734375" y="296.6839904785156" x="831.8991088867188" class="er relationshipLabelBox"/><text style="text-anchor: middle; dominant-baseline: middle; font-size: 12px;" y="303.6839904785156" x="872.8629760742188" id="rel3" class="er relationshipLabel">type_payments</text><rect height="14" width="130.193359375" y="818.5" x="307.7663269042969" class="er relationshipLabelBox"/><text style="text-anchor: middle; dominant-baseline: middle; font-size: 12px;" y="825.5" x="372.8630065917969" id="rel4" class="er relationshipLabel">enum:monthTransaction</text><rect height="14" width="62.896484375" y="596.1017456054688" x="266.6121826171875" class="er relationshipLabelBox"/><text style="text-anchor: middle; dominant-baseline: middle; font-size: 12px;" y="603.1017456054688" x="298.0604248046875" id="rel5" class="er relationshipLabel">Transaction</text><rect height="14" width="125.2421875" y="590.3435668945312" x="154.72183227539062" class="er relationshipLabelBox"/><text style="text-anchor: middle; dominant-baseline: middle; font-size: 12px;" y="597.3435668945312" x="217.34292602539062" id="rel6" class="er relationshipLabel">enum:transaction_type</text><rect height="14" width="43.12109375" y="607.6163940429688" x="414.4569091796875" class="er relationshipLabelBox"/><text style="text-anchor: middle; dominant-baseline: middle; font-size: 12px;" y="614.6163940429688" x="436.0174560546875" id="rel7" class="er relationshipLabel">Invoices</text><rect height="14" width="71.9140625" y="573.3259887695312" x="637.0526123046875" class="er relationshipLabelBox"/><text style="text-anchor: middle; dominant-baseline: middle; font-size: 12px;" y="580.3259887695312" x="673.0096435546875" id="rel8" class="er relationshipLabel">formPayment</text><rect height="14" width="25.18359375" y="242.88931274414062" x="311.6965637207031" class="er relationshipLabelBox"/><text style="text-anchor: middle; dominant-baseline: middle; font-size: 12px;" y="249.88931274414062" x="324.2883605957031" id="rel9" class="er relationshipLabel">User</text><rect height="14" width="48.912109375" y="413.82427978515625" x="215.55050659179688" class="er relationshipLabelBox"/><text style="text-anchor: middle; dominant-baseline: middle; font-size: 12px;" y="420.82427978515625" x="240.00656127929688" id="rel10" class="er relationshipLabel">Category</text><rect height="14" width="125.2421875" y="505.43304443359375" x="-9.642925262451172" class="er relationshipLabelBox"/><text style="text-anchor: middle; dominant-baseline: middle; font-size: 12px;" y="512.4330444335938" x="52.97816848754883" id="rel11" class="er relationshipLabel">enum:transaction_type</text><rect height="14" width="65.5625" y="356.9432373046875" x="327.6846923828125" class="er relationshipLabelBox"/><text style="text-anchor: middle; dominant-baseline: middle; font-size: 12px;" y="363.9432373046875" x="360.4659423828125" id="rel12" class="er relationshipLabel">transactions</text><rect height="14" width="23.958984375" y="134.73704528808594" x="254.14334106445312" class="er relationshipLabelBox"/><text style="text-anchor: middle; dominant-baseline: middle; font-size: 12px;" y="141.73704528808594" x="266.1228332519531" id="rel13" class="er relationshipLabel">user</text><rect height="14" width="23.958984375" y="390.0622253417969" x="660.8834838867188" class="er relationshipLabelBox"/><text style="text-anchor: middle; dominant-baseline: middle; font-size: 12px;" y="397.0622253417969" x="672.8629760742188" id="rel14" class="er relationshipLabel">user</text><rect height="14" width="59.005859375" y="624.16064453125" x="587.65625" class="er relationshipLabelBox"/><text style="text-anchor: middle; dominant-baseline: middle; font-size: 12px;" y="631.16064453125" x="617.1591796875" id="rel15" class="er relationshipLabel">trasactions</text></svg>