<svg aria-roledescription="er" role="graphics-document document" viewBox="-29.421794891357422 0 915.0801391601562 1013" style="max-width: 915.08px; background-color: white;" xmlns:xlink="http://www.w3.org/1999/xlink" xmlns="http://www.w3.org/2000/svg" width="100%" id="my-svg"><style>#my-svg{font-family:"trebuchet ms",verdana,arial,sans-serif;font-size:16px;fill:#ccc;}#my-svg .error-icon{fill:#a44141;}#my-svg .error-text{fill:#ddd;stroke:#ddd;}#my-svg .edge-thickness-normal{stroke-width:2px;}#my-svg .edge-thickness-thick{stroke-width:3.5px;}#my-svg .edge-pattern-solid{stroke-dasharray:0;}#my-svg .edge-pattern-dashed{stroke-dasharray:3;}#my-svg .edge-pattern-dotted{stroke-dasharray:2;}#my-svg .marker{fill:lightgrey;stroke:lightgrey;}#my-svg .marker.cross{stroke:lightgrey;}#my-svg svg{font-family:"trebuchet ms",verdana,arial,sans-serif;font-size:16px;}#my-svg .entityBox{fill:#1f2020;stroke:#81B1DB;}#my-svg .attributeBoxOdd{fill:hsl(0, 0%, 32%);stroke:#81B1DB;}#my-svg .attributeBoxEven{fill:hsl(0, 0%, 22%);stroke:#81B1DB;}#my-svg .relationshipLabelBox{fill:hsl(20, 1.5873015873%, 12.3529411765%);opacity:0.7;background-color:hsl(20, 1.5873015873%, 12.3529411765%);}#my-svg .relationshipLabelBox rect{opacity:0.5;}#my-svg .relationshipLine{stroke:lightgrey;}#my-svg .entityTitleText{text-anchor:middle;font-size:18px;fill:#ccc;}#my-svg #MD_PARENT_START{fill:#f5f5f5!important;stroke:lightgrey!important;stroke-width:1;}#my-svg #MD_PARENT_END{fill:#f5f5f5!important;stroke:lightgrey!important;stroke-width:1;}#my-svg :root{--mermaid-font-family:"trebuchet ms",verdana,arial,sans-serif;}</style><g/><defs><marker orient="auto" markerHeight="240" markerWidth="190" refY="7" refX="0" id="MD_PARENT_START"><path d="M 18,7 L9,13 L1,7 L9,1 Z"/></marker></defs><defs><marker orient="auto" markerHeight="28" markerWidth="20" refY="7" refX="19" id="MD_PARENT_END"><path d="M 18,7 L9,13 L1,7 L9,1 Z"/></marker></defs><defs><marker orient="auto" markerHeight="18" markerWidth="18" refY="9" refX="0" id="ONLY_ONE_START"><path d="M9,0 L9,18 M15,0 L15,18" fill="none" stroke="gray"/></marker></defs><defs><marker orient="auto" markerHeight="18" markerWidth="18" refY="9" refX="18" id="ONLY_ONE_END"><path d="M3,0 L3,18 M9,0 L9,18" fill="none" stroke="gray"/></marker></defs><defs><marker orient="auto" markerHeight="18" markerWidth="30" refY="9" refX="0" id="ZERO_OR_ONE_START"><circle r="6" cy="9" cx="21" fill="white" stroke="gray"/><path d="M9,0 L9,18" fill="none" stroke="gray"/></marker></defs><defs><marker orient="auto" markerHeight="18" markerWidth="30" refY="9" refX="30" id="ZERO_OR_ONE_END"><circle r="6" cy="9" cx="9" fill="white" stroke="gray"/><path d="M21,0 L21,18" fill="none" stroke="gray"/></marker></defs><defs><marker orient="auto" markerHeight="36" markerWidth="45" refY="18" refX="18" id="ONE_OR_MORE_START"><path d="M0,18 Q 18,0 36,18 Q 18,36 0,18 M42,9 L42,27" fill="none" stroke="gray"/></marker></defs><defs><marker orient="auto" markerHeight="36" markerWidth="45" refY="18" refX="27" id="ONE_OR_MORE_END"><path d="M3,9 L3,27 M9,18 Q27,0 45,18 Q27,36 9,18" fill="none" stroke="gray"/></marker></defs><defs><marker orient="auto" markerHeight="36" markerWidth="57" refY="18" refX="18" id="ZERO_OR_MORE_START"><circle r="6" cy="18" cx="48" fill="white" stroke="gray"/><path d="M0,18 Q18,0 36,18 Q18,36 0,18" fill="none" stroke="gray"/></marker></defs><defs><marker orient="auto" markerHeight="36" markerWidth="57" refY="18" refX="39" id="ZERO_OR_MORE_END"><circle r="6" cy="18" cx="9" fill="white" stroke="gray"/><path d="M21,18 Q39,0 57,18 Q39,36 21,18" fill="none" stroke="gray"/></marker></defs><path style="stroke: gray; fill: none;" marker-start="url(#ZERO_OR_MORE_START)" marker-end="url(#ZERO_OR_MORE_END)" d="M403.621,101.026L363.791,114.855C323.961,128.684,244.302,156.342,200.559,178.504C156.817,200.667,148.992,217.333,145.08,225.667L141.168,234" class="er relationshipLine"/><path style="stroke: gray; fill: none;" marker-start="url(#ZERO_OR_MORE_START)" marker-end="url(#ZERO_OR_MORE_END)" d="M500.419,134L504.454,142.333C508.489,150.667,516.559,167.333,520.594,193.417C524.629,219.5,524.629,255,524.629,290.5C524.629,326,524.629,361.5,514.717,387.583C504.805,413.667,484.981,430.333,475.069,438.667L465.157,447" class="er relationshipLine"/><path style="stroke: gray; fill: none;" marker-start="url(#ZERO_OR_MORE_START)" marker-end="url(#ZERO_OR_MORE_END)" d="M542.015,98.046L589.118,112.371C636.22,126.697,730.425,155.349,777.527,187.424C824.629,219.5,824.629,255,824.629,290.5C824.629,326,824.629,361.5,824.629,400.75C824.629,440,824.629,483,824.629,526C824.629,569,824.629,612,812.499,656.25C800.369,700.5,776.109,746,763.979,768.75L751.849,791.5" class="er relationshipLine"/><path style="stroke: gray; fill: none;" marker-start="url(#ZERO_OR_ONE_START)" marker-end="url(#ONLY_ONE_END)" d="M274.445,585.649L255.698,597.207C236.951,608.766,199.457,631.883,172.096,670.108C144.735,708.333,127.507,761.667,118.893,788.333L110.279,815" class="er relationshipLine"/><path style="stroke: gray; fill: none;" marker-start="url(#ZERO_OR_ONE_START)" marker-end="url(#ONLY_ONE_END)" d="M340.571,605L337.341,613.333C334.111,621.667,327.651,638.333,324.421,655C321.191,671.667,321.191,688.333,321.191,696.667L321.191,705" class="er relationshipLine"/><path style="stroke: gray; fill: none;" marker-start="url(#ZERO_OR_ONE_START)" marker-end="url(#ZERO_OR_ONE_END)" d="M467.937,561.311L510.719,576.926C553.501,592.541,639.065,623.77,681.444,662.135C723.823,700.5,723.017,746,722.613,768.75L722.21,791.5" class="er relationshipLine"/><path style="stroke: gray; fill: none;" marker-start="url(#ZERO_OR_ONE_START)" marker-end="url(#ONLY_ONE_END)" d="M334.919,447L331.093,438.667C327.267,430.333,319.615,413.667,315.789,387.583C311.963,361.5,311.963,326,311.963,290.5C311.963,255,311.963,219.5,327.239,191.588C342.515,163.677,373.068,143.353,388.345,133.191L403.621,123.03" class="er relationshipLine"/><path style="stroke: gray; fill: none;" marker-start="url(#ZERO_OR_ONE_START)" marker-end="url(#ZERO_OR_ONE_END)" d="M274.445,465.577L256.145,454.148C237.844,442.718,201.243,419.859,179.03,400.096C156.817,380.333,148.992,363.667,145.08,355.333L141.168,347" class="er relationshipLine"/><path style="stroke: gray; fill: none;" marker-start="url(#ZERO_OR_ONE_START)" marker-end="url(#ONLY_ONE_END)" d="M81.799,347L76.955,355.333C72.111,363.667,62.422,380.333,57.578,410.167C52.734,440,52.734,483,52.734,526C52.734,569,52.734,612,59.134,660.167C65.535,708.333,78.335,761.667,84.735,788.333L91.136,815" class="er relationshipLine"/><path style="stroke: gray; fill: none;" marker-start="url(#ZERO_OR_MORE_START)" marker-end="url(#ZERO_OR_MORE_END)" d="M209.284,323.015L245.175,335.346C281.066,347.677,352.848,372.338,385.286,393.003C417.725,413.667,410.821,430.333,407.369,438.667L403.917,447" class="er relationshipLine"/><path style="stroke: gray; fill: none;" marker-start="url(#ZERO_OR_ONE_START)" marker-end="url(#ONLY_ONE_END)" d="M88.116,234L84.204,225.667C80.291,217.333,72.467,200.667,125.051,177.523C177.635,154.38,290.628,124.76,347.124,109.95L403.621,95.139" class="er relationshipLine"/><path style="stroke: gray; fill: none;" marker-start="url(#ZERO_OR_ONE_START)" marker-end="url(#ONLY_ONE_END)" d="M692.571,791.5L681.247,768.75C669.924,746,647.277,700.5,635.953,656.25C624.629,612,624.629,569,624.629,526C624.629,483,624.629,440,624.629,400.75C624.629,361.5,624.629,326,624.629,290.5C624.629,255,624.629,219.5,610.86,192.045C597.091,164.591,569.553,145.181,555.784,135.476L542.015,125.772" class="er relationshipLine"/><path style="stroke: gray; fill: none;" marker-start="url(#ZERO_OR_MORE_START)" marker-end="url(#ZERO_OR_MORE_END)" d="M658.772,799.561L628.353,775.468C597.934,751.374,537.095,703.187,499.889,670.76C462.682,638.333,449.108,621.667,442.321,613.333L435.533,605" class="er relationshipLine"/><g transform="translate(43.75387954711914,815 )" id="entity-TrasactionType-841c4856-9937-573f-be64-0e4a50614861"><rect height="68" width="111.083984375" y="0" x="0" class="er entityBox"/><text style="dominant-baseline: middle; text-anchor: middle; font-size: 12px;" transform="translate(55.5419921875,12)" y="0" x="0" id="text-entity-TrasactionType-841c4856-9937-573f-be64-0e4a50614861" class="er entityLabel">TrasactionType</text><rect height="22" width="55.5419921875" y="24" x="0" class="er attributeBoxOdd"/><text style="dominant-baseline: middle; font-size: 10.2px;" transform="translate(5,35)" y="0" x="0" id="text-entity-TrasactionType-841c4856-9937-573f-be64-0e4a50614861-attr-1-type" class="er entityLabel">EXPENSE</text><rect height="22" width="55.5419921875" y="24" x="55.5419921875" class="er attributeBoxOdd"/><text style="dominant-baseline: middle; font-size: 10.2px;" transform="translate(60.5419921875,35)" y="0" x="0" id="text-entity-TrasactionType-841c4856-9937-573f-be64-0e4a50614861-attr-1-name" class="er entityLabel">EXPENSE</text><rect height="22" width="55.5419921875" y="46" x="0" class="er attributeBoxEven"/><text style="dominant-baseline: middle; font-size: 10.2px;" transform="translate(5,57)" y="0" x="0" id="text-entity-TrasactionType-841c4856-9937-573f-be64-0e4a50614861-attr-2-type" class="er entityLabel">REVENUE</text><rect height="22" width="55.5419921875" y="46" x="55.5419921875" class="er attributeBoxEven"/><text style="dominant-baseline: middle; font-size: 10.2px;" transform="translate(60.5419921875,57)" y="0" x="0" id="text-entity-TrasactionType-841c4856-9937-573f-be64-0e4a50614861-attr-2-name" class="er entityLabel">REVENUE</text></g><g transform="translate(258.27623748779297,705 )" id="entity-Months-305f8688-c58d-5ca4-b165-fb973385af34"><rect height="288" width="125.82974243164062" y="0" x="0" class="er entityBox"/><text style="dominant-baseline: middle; text-anchor: middle; font-size: 12px;" transform="translate(62.91487121582031,12)" y="0" x="0" id="text-entity-Months-305f8688-c58d-5ca4-b165-fb973385af34" class="er entityLabel">Months</text><rect height="22" width="62.91487121582031" y="24" x="0" class="er attributeBoxOdd"/><text style="dominant-baseline: middle; font-size: 10.2px;" transform="translate(5,35)" y="0" x="0" id="text-entity-Months-305f8688-c58d-5ca4-b165-fb973385af34-attr-1-type" class="er entityLabel">JANUARY</text><rect height="22" width="62.91487121582031" y="24" x="62.91487121582031" class="er attributeBoxOdd"/><text style="dominant-baseline: middle; font-size: 10.2px;" transform="translate(67.91487121582031,35)" y="0" x="0" id="text-entity-Months-305f8688-c58d-5ca4-b165-fb973385af34-attr-1-name" class="er entityLabel">JANUARY</text><rect height="22" width="62.91487121582031" y="46" x="0" class="er attributeBoxEven"/><text style="dominant-baseline: middle; font-size: 10.2px;" transform="translate(5,57)" y="0" x="0" id="text-entity-Months-305f8688-c58d-5ca4-b165-fb973385af34-attr-2-type" class="er entityLabel">FEBRUARY</text><rect height="22" width="62.91487121582031" y="46" x="62.91487121582031" class="er attributeBoxEven"/><text style="dominant-baseline: middle; font-size: 10.2px;" transform="translate(67.91487121582031,57)" y="0" x="0" id="text-entity-Months-305f8688-c58d-5ca4-b165-fb973385af34-attr-2-name" class="er entityLabel">FEBRUARY</text><rect height="22" width="62.91487121582031" y="68" x="0" class="er attributeBoxOdd"/><text style="dominant-baseline: middle; font-size: 10.2px;" transform="translate(5,79)" y="0" x="0" id="text-entity-Months-305f8688-c58d-5ca4-b165-fb973385af34-attr-3-type" class="er entityLabel">MARCH</text><rect height="22" width="62.91487121582031" y="68" x="62.91487121582031" class="er attributeBoxOdd"/><text style="dominant-baseline: middle; font-size: 10.2px;" transform="translate(67.91487121582031,79)" y="0" x="0" id="text-entity-Months-305f8688-c58d-5ca4-b165-fb973385af34-attr-3-name" class="er entityLabel">MARCH</text><rect height="22" width="62.91487121582031" y="90" x="0" class="er attributeBoxEven"/><text style="dominant-baseline: middle; font-size: 10.2px;" transform="translate(5,101)" y="0" x="0" id="text-entity-Months-305f8688-c58d-5ca4-b165-fb973385af34-attr-4-type" class="er entityLabel">APRIL</text><rect height="22" width="62.91487121582031" y="90" x="62.91487121582031" class="er attributeBoxEven"/><text style="dominant-baseline: middle; font-size: 10.2px;" transform="translate(67.91487121582031,101)" y="0" x="0" id="text-entity-Months-305f8688-c58d-5ca4-b165-fb973385af34-attr-4-name" class="er entityLabel">APRIL</text><rect height="22" width="62.91487121582031" y="112" x="0" class="er attributeBoxOdd"/><text style="dominant-baseline: middle; font-size: 10.2px;" transform="translate(5,123)" y="0" x="0" id="text-entity-Months-305f8688-c58d-5ca4-b165-fb973385af34-attr-5-type" class="er entityLabel">MAY</text><rect height="22" width="62.91487121582031" y="112" x="62.91487121582031" class="er attributeBoxOdd"/><text style="dominant-baseline: middle; font-size: 10.2px;" transform="translate(67.91487121582031,123)" y="0" x="0" id="text-entity-Months-305f8688-c58d-5ca4-b165-fb973385af34-attr-5-name" class="er entityLabel">MAY</text><rect height="22" width="62.91487121582031" y="134" x="0" class="er attributeBoxEven"/><text style="dominant-baseline: middle; font-size: 10.2px;" transform="translate(5,145)" y="0" x="0" id="text-entity-Months-305f8688-c58d-5ca4-b165-fb973385af34-attr-6-type" class="er entityLabel">JUNE</text><rect height="22" width="62.91487121582031" y="134" x="62.91487121582031" class="er attributeBoxEven"/><text style="dominant-baseline: middle; font-size: 10.2px;" transform="translate(67.91487121582031,145)" y="0" x="0" id="text-entity-Months-305f8688-c58d-5ca4-b165-fb973385af34-attr-6-name" class="er entityLabel">JUNE</text><rect height="22" width="62.91487121582031" y="156" x="0" class="er attributeBoxOdd"/><text style="dominant-baseline: middle; font-size: 10.2px;" transform="translate(5,167)" y="0" x="0" id="text-entity-Months-305f8688-c58d-5ca4-b165-fb973385af34-attr-7-type" class="er entityLabel">JULY</text><rect height="22" width="62.91487121582031" y="156" x="62.91487121582031" class="er attributeBoxOdd"/><text style="dominant-baseline: middle; font-size: 10.2px;" transform="translate(67.91487121582031,167)" y="0" x="0" id="text-entity-Months-305f8688-c58d-5ca4-b165-fb973385af34-attr-7-name" class="er entityLabel">JULY</text><rect height="22" width="62.91487121582031" y="178" x="0" class="er attributeBoxEven"/><text style="dominant-baseline: middle; font-size: 10.2px;" transform="translate(5,189)" y="0" x="0" id="text-entity-Months-305f8688-c58d-5ca4-b165-fb973385af34-attr-8-type" class="er entityLabel">AUGUST</text><rect height="22" width="62.91487121582031" y="178" x="62.91487121582031" class="er attributeBoxEven"/><text style="dominant-baseline: middle; font-size: 10.2px;" transform="translate(67.91487121582031,189)" y="0" x="0" id="text-entity-Months-305f8688-c58d-5ca4-b165-fb973385af34-attr-8-name" class="er entityLabel">AUGUST</text><rect height="22" width="62.91487121582031" y="200" x="0" class="er attributeBoxOdd"/><text style="dominant-baseline: middle; font-size: 10.2px;" transform="translate(5,211)" y="0" x="0" id="text-entity-Months-305f8688-c58d-5ca4-b165-fb973385af34-attr-9-type" class="er entityLabel">SEPTEMBER</text><rect height="22" width="62.91487121582031" y="200" x="62.91487121582031" class="er attributeBoxOdd"/><text style="dominant-baseline: middle; font-size: 10.2px;" transform="translate(67.91487121582031,211)" y="0" x="0" id="text-entity-Months-305f8688-c58d-5ca4-b165-fb973385af34-attr-9-name" class="er entityLabel">SEPTEMBER</text><rect height="22" width="62.91487121582031" y="222" x="0" class="er attributeBoxEven"/><text style="dominant-baseline: middle; font-size: 10.2px;" transform="translate(5,233)" y="0" x="0" id="text-entity-Months-305f8688-c58d-5ca4-b165-fb973385af34-attr-10-type" class="er entityLabel">OCTOBER</text><rect height="22" width="62.91487121582031" y="222" x="62.91487121582031" class="er attributeBoxEven"/><text style="dominant-baseline: middle; font-size: 10.2px;" transform="translate(67.91487121582031,233)" y="0" x="0" id="text-entity-Months-305f8688-c58d-5ca4-b165-fb973385af34-attr-10-name" class="er entityLabel">OCTOBER</text><rect height="22" width="62.91487121582031" y="244" x="0" class="er attributeBoxOdd"/><text style="dominant-baseline: middle; font-size: 10.2px;" transform="translate(5,255)" y="0" x="0" id="text-entity-Months-305f8688-c58d-5ca4-b165-fb973385af34-attr-11-type" class="er entityLabel">NOVEMBER</text><rect height="22" width="62.91487121582031" y="244" x="62.91487121582031" class="er attributeBoxOdd"/><text style="dominant-baseline: middle; font-size: 10.2px;" transform="translate(67.91487121582031,255)" y="0" x="0" id="text-entity-Months-305f8688-c58d-5ca4-b165-fb973385af34-attr-11-name" class="er entityLabel">NOVEMBER</text><rect height="22" width="62.91487121582031" y="266" x="0" class="er attributeBoxEven"/><text style="dominant-baseline: middle; font-size: 10.2px;" transform="translate(5,277)" y="0" x="0" id="text-entity-Months-305f8688-c58d-5ca4-b165-fb973385af34-attr-12-type" class="er entityLabel">DECEMBER</text><rect height="22" width="62.91487121582031" y="266" x="62.91487121582031" class="er attributeBoxEven"/><text style="dominant-baseline: middle; font-size: 10.2px;" transform="translate(67.91487121582031,277)" y="0" x="0" id="text-entity-Months-305f8688-c58d-5ca4-b165-fb973385af34-attr-12-name" class="er entityLabel">DECEMBER</text></g><g transform="translate(403.6209411621094,20 )" id="entity-users-33ae1e26-be31-5c1d-bf65-e859e9d0308e"><rect height="114" width="138.39430236816406" y="0" x="0" class="er entityBox"/><text style="dominant-baseline: middle; text-anchor: middle; font-size: 12px;" transform="translate(69.19715118408203,12)" y="0" x="0" id="text-entity-users-33ae1e26-be31-5c1d-bf65-e859e9d0308e" class="er entityLabel">users</text><rect height="23" width="37.39605712890625" y="24" x="0" class="er attributeBoxOdd"/><text style="dominant-baseline: middle; font-size: 10.2px;" transform="translate(5,35.5)" y="0" x="0" id="text-entity-users-33ae1e26-be31-5c1d-bf65-e859e9d0308e-attr-1-type" class="er entityLabel">String</text><rect height="23" width="78.42012023925781" y="24" x="37.39605712890625" class="er attributeBoxOdd"/><text style="dominant-baseline: middle; font-size: 10.2px;" transform="translate(42.39605712890625,35.5)" y="0" x="0" id="text-entity-users-33ae1e26-be31-5c1d-bf65-e859e9d0308e-attr-1-name" class="er entityLabel">id</text><rect height="23" width="22.578125" y="24" x="115.81617736816406" class="er attributeBoxOdd"/><text style="dominant-baseline: middle; font-size: 10.2px;" transform="translate(120.81617736816406,35.5)" y="0" x="0" id="text-entity-users-33ae1e26-be31-5c1d-bf65-e859e9d0308e-attr-1-comment" class="er entityLabel">🗝️</text><rect height="22" width="37.39605712890625" y="47" x="0" class="er attributeBoxEven"/><text style="dominant-baseline: middle; font-size: 10.2px;" transform="translate(5,58)" y="0" x="0" id="text-entity-users-33ae1e26-be31-5c1d-bf65-e859e9d0308e-attr-2-type" class="er entityLabel">String</text><rect height="22" width="78.42012023925781" y="47" x="37.39605712890625" class="er attributeBoxEven"/><text style="dominant-baseline: middle; font-size: 10.2px;" transform="translate(42.39605712890625,58)" y="0" x="0" id="text-entity-users-33ae1e26-be31-5c1d-bf65-e859e9d0308e-attr-2-name" class="er entityLabel">email</text><rect height="22" width="22.578125" y="47" x="115.81617736816406" class="er attributeBoxEven"/><text style="dominant-baseline: middle; font-size: 10.2px;" transform="translate(120.81617736816406,58)" y="0" x="0" id="text-entity-users-33ae1e26-be31-5c1d-bf65-e859e9d0308e-attr-2-comment" class="er entityLabel"/><rect height="22" width="37.39605712890625" y="69" x="0" class="er attributeBoxOdd"/><text style="dominant-baseline: middle; font-size: 10.2px;" transform="translate(5,80)" y="0" x="0" id="text-entity-users-33ae1e26-be31-5c1d-bf65-e859e9d0308e-attr-3-type" class="er entityLabel">String</text><rect height="22" width="78.42012023925781" y="69" x="37.39605712890625" class="er attributeBoxOdd"/><text style="dominant-baseline: middle; font-size: 10.2px;" transform="translate(42.39605712890625,80)" y="0" x="0" id="text-entity-users-33ae1e26-be31-5c1d-bf65-e859e9d0308e-attr-3-name" class="er entityLabel">password_hash</text><rect height="22" width="22.578125" y="69" x="115.81617736816406" class="er attributeBoxOdd"/><text style="dominant-baseline: middle; font-size: 10.2px;" transform="translate(120.81617736816406,80)" y="0" x="0" id="text-entity-users-33ae1e26-be31-5c1d-bf65-e859e9d0308e-attr-3-comment" class="er entityLabel"/><rect height="23" width="37.39605712890625" y="91" x="0" class="er attributeBoxEven"/><text style="dominant-baseline: middle; font-size: 10.2px;" transform="translate(5,102.5)" y="0" x="0" id="text-entity-users-33ae1e26-be31-5c1d-bf65-e859e9d0308e-attr-4-type" class="er entityLabel">String</text><rect height="23" width="78.42012023925781" y="91" x="37.39605712890625" class="er attributeBoxEven"/><text style="dominant-baseline: middle; font-size: 10.2px;" transform="translate(42.39605712890625,102.5)" y="0" x="0" id="text-entity-users-33ae1e26-be31-5c1d-bf65-e859e9d0308e-attr-4-name" class="er entityLabel">name</text><rect height="23" width="22.578125" y="91" x="115.81617736816406" class="er attributeBoxEven"/><text style="dominant-baseline: middle; font-size: 10.2px;" transform="translate(120.81617736816406,102.5)" y="0" x="0" id="text-entity-users-33ae1e26-be31-5c1d-bf65-e859e9d0308e-attr-4-comment" class="er entityLabel">❓</text></g><g transform="translate(274.44507598876953,447 )" id="entity-transactions-a3d7e83a-4348-578f-b8ec-7c8b8dbef31a"><rect height="158" width="193.4920654296875" y="0" x="0" class="er entityBox"/><text style="dominant-baseline: middle; text-anchor: middle; font-size: 12px;" transform="translate(96.74603271484375,12)" y="0" x="0" id="text-entity-transactions-a3d7e83a-4348-578f-b8ec-7c8b8dbef31a" class="er entityLabel">transactions</text><rect height="23" width="79.12129211425781" y="24" x="0" class="er attributeBoxOdd"/><text style="dominant-baseline: middle; font-size: 10.2px;" transform="translate(5,35.5)" y="0" x="0" id="text-entity-transactions-a3d7e83a-4348-578f-b8ec-7c8b8dbef31a-attr-1-type" class="er entityLabel">String</text><rect height="23" width="91.79264831542969" y="24" x="79.12129211425781" class="er attributeBoxOdd"/><text style="dominant-baseline: middle; font-size: 10.2px;" transform="translate(84.12129211425781,35.5)" y="0" x="0" id="text-entity-transactions-a3d7e83a-4348-578f-b8ec-7c8b8dbef31a-attr-1-name" class="er entityLabel">id</text><rect height="23" width="22.578125" y="24" x="170.9139404296875" class="er attributeBoxOdd"/><text style="dominant-baseline: middle; font-size: 10.2px;" transform="translate(175.9139404296875,35.5)" y="0" x="0" id="text-entity-transactions-a3d7e83a-4348-578f-b8ec-7c8b8dbef31a-attr-1-comment" class="er entityLabel">🗝️</text><rect height="22" width="79.12129211425781" y="47" x="0" class="er attributeBoxEven"/><text style="dominant-baseline: middle; font-size: 10.2px;" transform="translate(5,58)" y="0" x="0" id="text-entity-transactions-a3d7e83a-4348-578f-b8ec-7c8b8dbef31a-attr-2-type" class="er entityLabel">TrasactionType</text><rect height="22" width="91.79264831542969" y="47" x="79.12129211425781" class="er attributeBoxEven"/><text style="dominant-baseline: middle; font-size: 10.2px;" transform="translate(84.12129211425781,58)" y="0" x="0" id="text-entity-transactions-a3d7e83a-4348-578f-b8ec-7c8b8dbef31a-attr-2-name" class="er entityLabel">transaction_type</text><rect height="22" width="22.578125" y="47" x="170.9139404296875" class="er attributeBoxEven"/><text style="dominant-baseline: middle; font-size: 10.2px;" transform="translate(175.9139404296875,58)" y="0" x="0" id="text-entity-transactions-a3d7e83a-4348-578f-b8ec-7c8b8dbef31a-attr-2-comment" class="er entityLabel"/><rect height="22" width="79.12129211425781" y="69" x="0" class="er attributeBoxOdd"/><text style="dominant-baseline: middle; font-size: 10.2px;" transform="translate(5,80)" y="0" x="0" id="text-entity-transactions-a3d7e83a-4348-578f-b8ec-7c8b8dbef31a-attr-3-type" class="er entityLabel">Decimal</text><rect height="22" width="91.79264831542969" y="69" x="79.12129211425781" class="er attributeBoxOdd"/><text style="dominant-baseline: middle; font-size: 10.2px;" transform="translate(84.12129211425781,80)" y="0" x="0" id="text-entity-transactions-a3d7e83a-4348-578f-b8ec-7c8b8dbef31a-attr-3-name" class="er entityLabel">value</text><rect height="22" width="22.578125" y="69" x="170.9139404296875" class="er attributeBoxOdd"/><text style="dominant-baseline: middle; font-size: 10.2px;" transform="translate(175.9139404296875,80)" y="0" x="0" id="text-entity-transactions-a3d7e83a-4348-578f-b8ec-7c8b8dbef31a-attr-3-comment" class="er entityLabel"/><rect height="22" width="79.12129211425781" y="91" x="0" class="er attributeBoxEven"/><text style="dominant-baseline: middle; font-size: 10.2px;" transform="translate(5,102)" y="0" x="0" id="text-entity-transactions-a3d7e83a-4348-578f-b8ec-7c8b8dbef31a-attr-4-type" class="er entityLabel">DateTime</text><rect height="22" width="91.79264831542969" y="91" x="79.12129211425781" class="er attributeBoxEven"/><text style="dominant-baseline: middle; font-size: 10.2px;" transform="translate(84.12129211425781,102)" y="0" x="0" id="text-entity-transactions-a3d7e83a-4348-578f-b8ec-7c8b8dbef31a-attr-4-name" class="er entityLabel">created_at</text><rect height="22" width="22.578125" y="91" x="170.9139404296875" class="er attributeBoxEven"/><text style="dominant-baseline: middle; font-size: 10.2px;" transform="translate(175.9139404296875,102)" y="0" x="0" id="text-entity-transactions-a3d7e83a-4348-578f-b8ec-7c8b8dbef31a-attr-4-comment" class="er entityLabel"/><rect height="23" width="79.12129211425781" y="113" x="0" class="er attributeBoxOdd"/><text style="dominant-baseline: middle; font-size: 10.2px;" transform="translate(5,124.5)" y="0" x="0" id="text-entity-transactions-a3d7e83a-4348-578f-b8ec-7c8b8dbef31a-attr-5-type" class="er entityLabel">DateTime</text><rect height="23" width="91.79264831542969" y="113" x="79.12129211425781" class="er attributeBoxOdd"/><text style="dominant-baseline: middle; font-size: 10.2px;" transform="translate(84.12129211425781,124.5)" y="0" x="0" id="text-entity-transactions-a3d7e83a-4348-578f-b8ec-7c8b8dbef31a-attr-5-name" class="er entityLabel">transaction_at</text><rect height="23" width="22.578125" y="113" x="170.9139404296875" class="er attributeBoxOdd"/><text style="dominant-baseline: middle; font-size: 10.2px;" transform="translate(175.9139404296875,124.5)" y="0" x="0" id="text-entity-transactions-a3d7e83a-4348-578f-b8ec-7c8b8dbef31a-attr-5-comment" class="er entityLabel">❓</text><rect height="22" width="79.12129211425781" y="136" x="0" class="er attributeBoxEven"/><text style="dominant-baseline: middle; font-size: 10.2px;" transform="translate(5,147)" y="0" x="0" id="text-entity-transactions-a3d7e83a-4348-578f-b8ec-7c8b8dbef31a-attr-6-type" class="er entityLabel">Months</text><rect height="22" width="91.79264831542969" y="136" x="79.12129211425781" class="er attributeBoxEven"/><text style="dominant-baseline: middle; font-size: 10.2px;" transform="translate(84.12129211425781,147)" y="0" x="0" id="text-entity-transactions-a3d7e83a-4348-578f-b8ec-7c8b8dbef31a-attr-6-name" class="er entityLabel">monthTransaction</text><rect height="22" width="22.578125" y="136" x="170.9139404296875" class="er attributeBoxEven"/><text style="dominant-baseline: middle; font-size: 10.2px;" transform="translate(175.9139404296875,147)" y="0" x="0" id="text-entity-transactions-a3d7e83a-4348-578f-b8ec-7c8b8dbef31a-attr-6-comment" class="er entityLabel"/></g><g transform="translate(20,234 )" id="entity-categories-a09d50f2-ac74-5856-9390-f2cc9b07f93b"><rect height="113" width="189.2835693359375" y="0" x="0" class="er entityBox"/><text style="dominant-baseline: middle; text-anchor: middle; font-size: 12px;" transform="translate(94.64178466796875,12)" y="0" x="0" id="text-entity-categories-a09d50f2-ac74-5856-9390-f2cc9b07f93b" class="er entityLabel">categories</text><rect height="23" width="79.12129211425781" y="24" x="0" class="er attributeBoxOdd"/><text style="dominant-baseline: middle; font-size: 10.2px;" transform="translate(5,35.5)" y="0" x="0" id="text-entity-categories-a09d50f2-ac74-5856-9390-f2cc9b07f93b-attr-1-type" class="er entityLabel">String</text><rect height="23" width="87.58415222167969" y="24" x="79.12129211425781" class="er attributeBoxOdd"/><text style="dominant-baseline: middle; font-size: 10.2px;" transform="translate(84.12129211425781,35.5)" y="0" x="0" id="text-entity-categories-a09d50f2-ac74-5856-9390-f2cc9b07f93b-attr-1-name" class="er entityLabel">id</text><rect height="23" width="22.578125" y="24" x="166.7054443359375" class="er attributeBoxOdd"/><text style="dominant-baseline: middle; font-size: 10.2px;" transform="translate(171.7054443359375,35.5)" y="0" x="0" id="text-entity-categories-a09d50f2-ac74-5856-9390-f2cc9b07f93b-attr-1-comment" class="er entityLabel">🗝️</text><rect height="22" width="79.12129211425781" y="47" x="0" class="er attributeBoxEven"/><text style="dominant-baseline: middle; font-size: 10.2px;" transform="translate(5,58)" y="0" x="0" id="text-entity-categories-a09d50f2-ac74-5856-9390-f2cc9b07f93b-attr-2-type" class="er entityLabel">String</text><rect height="22" width="87.58415222167969" y="47" x="79.12129211425781" class="er attributeBoxEven"/><text style="dominant-baseline: middle; font-size: 10.2px;" transform="translate(84.12129211425781,58)" y="0" x="0" id="text-entity-categories-a09d50f2-ac74-5856-9390-f2cc9b07f93b-attr-2-name" class="er entityLabel">name</text><rect height="22" width="22.578125" y="47" x="166.7054443359375" class="er attributeBoxEven"/><text style="dominant-baseline: middle; font-size: 10.2px;" transform="translate(171.7054443359375,58)" y="0" x="0" id="text-entity-categories-a09d50f2-ac74-5856-9390-f2cc9b07f93b-attr-2-comment" class="er entityLabel"/><rect height="22" width="79.12129211425781" y="69" x="0" class="er attributeBoxOdd"/><text style="dominant-baseline: middle; font-size: 10.2px;" transform="translate(5,80)" y="0" x="0" id="text-entity-categories-a09d50f2-ac74-5856-9390-f2cc9b07f93b-attr-3-type" class="er entityLabel">TrasactionType</text><rect height="22" width="87.58415222167969" y="69" x="79.12129211425781" class="er attributeBoxOdd"/><text style="dominant-baseline: middle; font-size: 10.2px;" transform="translate(84.12129211425781,80)" y="0" x="0" id="text-entity-categories-a09d50f2-ac74-5856-9390-f2cc9b07f93b-attr-3-name" class="er entityLabel">transaction_type</text><rect height="22" width="22.578125" y="69" x="166.7054443359375" class="er attributeBoxOdd"/><text style="dominant-baseline: middle; font-size: 10.2px;" transform="translate(171.7054443359375,80)" y="0" x="0" id="text-entity-categories-a09d50f2-ac74-5856-9390-f2cc9b07f93b-attr-3-comment" class="er entityLabel"/><rect height="22" width="79.12129211425781" y="91" x="0" class="er attributeBoxEven"/><text style="dominant-baseline: middle; font-size: 10.2px;" transform="translate(5,102)" y="0" x="0" id="text-entity-categories-a09d50f2-ac74-5856-9390-f2cc9b07f93b-attr-4-type" class="er entityLabel">DateTime</text><rect height="22" width="87.58415222167969" y="91" x="79.12129211425781" class="er attributeBoxEven"/><text style="dominant-baseline: middle; font-size: 10.2px;" transform="translate(84.12129211425781,102)" y="0" x="0" id="text-entity-categories-a09d50f2-ac74-5856-9390-f2cc9b07f93b-attr-4-name" class="er entityLabel">created_at</text><rect height="22" width="22.578125" y="91" x="166.7054443359375" class="er attributeBoxEven"/><text style="dominant-baseline: middle; font-size: 10.2px;" transform="translate(171.7054443359375,102)" y="0" x="0" id="text-entity-categories-a09d50f2-ac74-5856-9390-f2cc9b07f93b-attr-4-comment" class="er entityLabel"/></g><g transform="translate(658.7723693847656,791.5 )" id="entity-formspayment-eec3d650-bf97-5c15-8fcc-1aa5faecff8c"><rect height="115" width="124.83747863769531" y="0" x="0" class="er entityBox"/><text style="dominant-baseline: middle; text-anchor: middle; font-size: 12px;" transform="translate(62.418739318847656,12)" y="0" x="0" id="text-entity-formspayment-eec3d650-bf97-5c15-8fcc-1aa5faecff8c" class="er entityLabel">forms_payment</text><rect height="23" width="37.39605712890625" y="24" x="0" class="er attributeBoxOdd"/><text style="dominant-baseline: middle; font-size: 10.2px;" transform="translate(5,35.5)" y="0" x="0" id="text-entity-formspayment-eec3d650-bf97-5c15-8fcc-1aa5faecff8c-attr-1-type" class="er entityLabel">String</text><rect height="23" width="64.86329650878906" y="24" x="37.39605712890625" class="er attributeBoxOdd"/><text style="dominant-baseline: middle; font-size: 10.2px;" transform="translate(42.39605712890625,35.5)" y="0" x="0" id="text-entity-formspayment-eec3d650-bf97-5c15-8fcc-1aa5faecff8c-attr-1-name" class="er entityLabel">id</text><rect height="23" width="22.578125" y="24" x="102.25935363769531" class="er attributeBoxOdd"/><text style="dominant-baseline: middle; font-size: 10.2px;" transform="translate(107.25935363769531,35.5)" y="0" x="0" id="text-entity-formspayment-eec3d650-bf97-5c15-8fcc-1aa5faecff8c-attr-1-comment" class="er entityLabel">🗝️</text><rect height="22" width="37.39605712890625" y="47" x="0" class="er attributeBoxEven"/><text style="dominant-baseline: middle; font-size: 10.2px;" transform="translate(5,58)" y="0" x="0" id="text-entity-formspayment-eec3d650-bf97-5c15-8fcc-1aa5faecff8c-attr-2-type" class="er entityLabel">String</text><rect height="22" width="64.86329650878906" y="47" x="37.39605712890625" class="er attributeBoxEven"/><text style="dominant-baseline: middle; font-size: 10.2px;" transform="translate(42.39605712890625,58)" y="0" x="0" id="text-entity-formspayment-eec3d650-bf97-5c15-8fcc-1aa5faecff8c-attr-2-name" class="er entityLabel">name</text><rect height="22" width="22.578125" y="47" x="102.25935363769531" class="er attributeBoxEven"/><text style="dominant-baseline: middle; font-size: 10.2px;" transform="translate(107.25935363769531,58)" y="0" x="0" id="text-entity-formspayment-eec3d650-bf97-5c15-8fcc-1aa5faecff8c-attr-2-comment" class="er entityLabel"/><rect height="23" width="37.39605712890625" y="69" x="0" class="er attributeBoxOdd"/><text style="dominant-baseline: middle; font-size: 10.2px;" transform="translate(5,80.5)" y="0" x="0" id="text-entity-formspayment-eec3d650-bf97-5c15-8fcc-1aa5faecff8c-attr-3-type" class="er entityLabel">Int</text><rect height="23" width="64.86329650878906" y="69" x="37.39605712890625" class="er attributeBoxOdd"/><text style="dominant-baseline: middle; font-size: 10.2px;" transform="translate(42.39605712890625,80.5)" y="0" x="0" id="text-entity-formspayment-eec3d650-bf97-5c15-8fcc-1aa5faecff8c-attr-3-name" class="er entityLabel">invoice_day</text><rect height="23" width="22.578125" y="69" x="102.25935363769531" class="er attributeBoxOdd"/><text style="dominant-baseline: middle; font-size: 10.2px;" transform="translate(107.25935363769531,80.5)" y="0" x="0" id="text-entity-formspayment-eec3d650-bf97-5c15-8fcc-1aa5faecff8c-attr-3-comment" class="er entityLabel">❓</text><rect height="23" width="37.39605712890625" y="92" x="0" class="er attributeBoxEven"/><text style="dominant-baseline: middle; font-size: 10.2px;" transform="translate(5,103.5)" y="0" x="0" id="text-entity-formspayment-eec3d650-bf97-5c15-8fcc-1aa5faecff8c-attr-4-type" class="er entityLabel">Int</text><rect height="23" width="64.86329650878906" y="92" x="37.39605712890625" class="er attributeBoxEven"/><text style="dominant-baseline: middle; font-size: 10.2px;" transform="translate(42.39605712890625,103.5)" y="0" x="0" id="text-entity-formspayment-eec3d650-bf97-5c15-8fcc-1aa5faecff8c-attr-4-name" class="er entityLabel">due_day</text><rect height="23" width="22.578125" y="92" x="102.25935363769531" class="er attributeBoxEven"/><text style="dominant-baseline: middle; font-size: 10.2px;" transform="translate(107.25935363769531,103.5)" y="0" x="0" id="text-entity-formspayment-eec3d650-bf97-5c15-8fcc-1aa5faecff8c-attr-4-comment" class="er entityLabel">❓</text></g><rect height="14" width="55.642578125" y="144.84190368652344" x="234.20574951171875" class="er relationshipLabelBox"/><text style="text-anchor: middle; dominant-baseline: middle; font-size: 12px;" y="151.84190368652344" x="262.02703857421875" id="rel1" class="er relationshipLabel">categories</text><rect height="14" width="65.5625" y="291.5814514160156" x="491.8428955078125" class="er relationshipLabelBox"/><text style="text-anchor: middle; dominant-baseline: middle; font-size: 12px;" y="298.5814514160156" x="524.6241455078125" id="rel2" class="er relationshipLabel">transactions</text><rect height="14" width="81.927734375" y="355.0153503417969" x="783.6651611328125" class="er relationshipLabelBox"/><text style="text-anchor: middle; dominant-baseline: middle; font-size: 12px;" y="362.0153503417969" x="824.6290283203125" id="rel3" class="er relationshipLabel">type_payments</text><rect height="14" width="125.2421875" y="673.2509765625" x="102.65724182128906" class="er relationshipLabelBox"/><text style="text-anchor: middle; dominant-baseline: middle; font-size: 12px;" y="680.2509765625" x="165.27833557128906" id="rel4" class="er relationshipLabel">enum:transaction_type</text><rect height="14" width="130.193359375" y="646.8090209960938" x="259.5611267089844" class="er relationshipLabelBox"/><text style="text-anchor: middle; dominant-baseline: middle; font-size: 12px;" y="653.8090209960938" x="324.6578063964844" id="rel5" class="er relationshipLabel">enum:monthTransaction</text><rect height="14" width="71.9140625" y="627.4404296875" x="606.276123046875" class="er relationshipLabelBox"/><text style="text-anchor: middle; dominant-baseline: middle; font-size: 12px;" y="634.4404296875" x="642.233154296875" id="rel6" class="er relationshipLabel">formPayment</text><rect height="14" width="25.18359375" y="261.0355224609375" x="299.51654052734375" class="er relationshipLabelBox"/><text style="text-anchor: middle; dominant-baseline: middle; font-size: 12px;" y="268.0355224609375" x="312.10833740234375" id="rel7" class="er relationshipLabel">User</text><rect height="14" width="48.912109375" y="408.7544250488281" x="174.07054138183594" class="er relationshipLabelBox"/><text style="text-anchor: middle; dominant-baseline: middle; font-size: 12px;" y="415.7544250488281" x="198.52659606933594" id="rel8" class="er relationshipLabel">Category</text><rect height="14" width="125.2421875" y="573.2001342773438" x="-9.421794891357422" class="er relationshipLabelBox"/><text style="text-anchor: middle; dominant-baseline: middle; font-size: 12px;" y="580.2001342773438" x="53.19929885864258" id="rel9" class="er relationshipLabel">enum:transaction_type</text><rect height="14" width="65.5625" y="359.1241760253906" x="296.54290771484375" class="er relationshipLabelBox"/><text style="text-anchor: middle; dominant-baseline: middle; font-size: 12px;" y="366.1241760253906" x="329.32415771484375" id="rel10" class="er relationshipLabel">transactions</text><rect height="14" width="23.958984375" y="136.57749938964844" x="212.50245666503906" class="er relationshipLabelBox"/><text style="text-anchor: middle; dominant-baseline: middle; font-size: 12px;" y="143.57749938964844" x="224.48194885253906" id="rel11" class="er relationshipLabel">user</text><rect height="14" width="23.958984375" y="441.79986572265625" x="612.6495361328125" class="er relationshipLabelBox"/><text style="text-anchor: middle; dominant-baseline: middle; font-size: 12px;" y="448.79986572265625" x="624.6290283203125" id="rel12" class="er relationshipLabel">user</text><rect height="14" width="59.005859375" y="699.9097900390625" x="513.403076171875" class="er relationshipLabelBox"/><text style="text-anchor: middle; dominant-baseline: middle; font-size: 12px;" y="706.9097900390625" x="542.906005859375" id="rel13" class="er relationshipLabel">trasactions</text></svg>